<?xml version="1.0" encoding="UTF-8"?><svg xmlns="http://www.w3.org/2000/svg" xmlns:xlink="http://www.w3.org/1999/xlink" fill-opacity="1" color-rendering="auto" color-interpolation="auto" text-rendering="auto" stroke="black" stroke-linecap="square" width="588" stroke-miterlimit="10" shape-rendering="auto" stroke-opacity="1" fill="black" stroke-dasharray="none" font-weight="normal" stroke-width="1" height="422" font-family="'Dialog'" font-style="normal" stroke-linejoin="miter" font-size="12" stroke-dashoffset="0" image-rendering="auto">
  <!--Generated by ySVG 2.5-->
  <defs id="genericDefs"/>
  <g>
    <defs id="defs1">
      <linearGradient x1="444" gradientUnits="userSpaceOnUse" x2="524" y1="197" y2="237" id="linearGradient1" spreadMethod="reflect">
        <stop stop-opacity="1" stop-color="rgb(232,238,247)" offset="0%"/>
        <stop stop-opacity="1" stop-color="rgb(183,201,227)" offset="100%"/>
      </linearGradient>
      <linearGradient x1="444" gradientUnits="userSpaceOnUse" x2="524" y1="272" y2="312" id="linearGradient2" spreadMethod="reflect">
        <stop stop-opacity="1" stop-color="rgb(232,238,247)" offset="0%"/>
        <stop stop-opacity="1" stop-color="rgb(183,201,227)" offset="100%"/>
      </linearGradient>
      <linearGradient x1="250" gradientUnits="userSpaceOnUse" x2="340" y1="342" y2="382" id="linearGradient3" spreadMethod="reflect">
        <stop stop-opacity="1" stop-color="rgb(232,238,247)" offset="0%"/>
        <stop stop-opacity="1" stop-color="rgb(183,201,227)" offset="100%"/>
      </linearGradient>
      <linearGradient x1="411" gradientUnits="userSpaceOnUse" x2="491" y1="342" y2="382" id="linearGradient4" spreadMethod="reflect">
        <stop stop-opacity="1" stop-color="rgb(232,238,247)" offset="0%"/>
        <stop stop-opacity="1" stop-color="rgb(183,201,227)" offset="100%"/>
      </linearGradient>
      <linearGradient x1="713" gradientUnits="userSpaceOnUse" x2="793" y1="342" y2="382" id="linearGradient5" spreadMethod="reflect">
        <stop stop-opacity="1" stop-color="rgb(232,238,247)" offset="0%"/>
        <stop stop-opacity="1" stop-color="rgb(183,201,227)" offset="100%"/>
      </linearGradient>
      <linearGradient x1="562" gradientUnits="userSpaceOnUse" x2="642" y1="342" y2="382" id="linearGradient6" spreadMethod="reflect">
        <stop stop-opacity="1" stop-color="rgb(232,238,247)" offset="0%"/>
        <stop stop-opacity="1" stop-color="rgb(183,201,227)" offset="100%"/>
      </linearGradient>
      <linearGradient x1="699" gradientUnits="userSpaceOnUse" x2="808" y1="403.5" y2="443.5" id="linearGradient7" spreadMethod="reflect">
        <stop stop-opacity="1" stop-color="rgb(232,238,247)" offset="0%"/>
        <stop stop-opacity="1" stop-color="rgb(183,201,227)" offset="100%"/>
      </linearGradient>
      <linearGradient x1="372" gradientUnits="userSpaceOnUse" x2="597" y1="122" y2="162" id="linearGradient8" spreadMethod="reflect">
        <stop stop-opacity="1" stop-color="rgb(232,238,247)" offset="0%"/>
        <stop stop-opacity="1" stop-color="rgb(183,201,227)" offset="100%"/>
      </linearGradient>
      <linearGradient x1="382" gradientUnits="userSpaceOnUse" x2="585" y1="52" y2="92" id="linearGradient9" spreadMethod="reflect">
        <stop stop-opacity="1" stop-color="rgb(232,238,247)" offset="0%"/>
        <stop stop-opacity="1" stop-color="rgb(183,201,227)" offset="100%"/>
      </linearGradient>
      <clipPath clipPathUnits="userSpaceOnUse" id="clipPath1">
        <path d="M0 0 L588 0 L588 422 L0 422 L0 0 Z"/>
      </clipPath>
      <clipPath clipPathUnits="userSpaceOnUse" id="clipPath2">
        <path d="M235 37 L823 37 L823 459 L235 459 L235 37 Z"/>
      </clipPath>
    </defs>
    <g fill="white" text-rendering="geometricPrecision" shape-rendering="geometricPrecision" transform="translate(-235,-37)" stroke="white">
      <rect x="235" width="588" height="422" y="37" clip-path="url(#clipPath2)" stroke="none"/>
    </g>
    <g fill="url(#linearGradient1)" text-rendering="geometricPrecision" shape-rendering="geometricPrecision" transform="matrix(1,0,0,1,-235,-37)" stroke="url(#linearGradient1)">
      <ellipse rx="40" ry="20" clip-path="url(#clipPath2)" cx="484" cy="217" stroke="none"/>
    </g>
    <g text-rendering="geometricPrecision" stroke-miterlimit="1.45" shape-rendering="geometricPrecision" transform="matrix(1,0,0,1,-235,-37)" stroke-linecap="butt">
      <ellipse rx="40" fill="none" ry="20" clip-path="url(#clipPath2)" cx="484" cy="217"/>
      <text x="451.3486" xml:space="preserve" y="221.5352" clip-path="url(#clipPath2)" font-family="sans-serif" stroke="none">Home Page</text>
    </g>
    <g fill="url(#linearGradient2)" text-rendering="geometricPrecision" shape-rendering="geometricPrecision" transform="matrix(1,0,0,1,-235,-37)" stroke="url(#linearGradient2)">
      <path d="M484 272 L524 292 L484 312 L444 292 Z" stroke="none" clip-path="url(#clipPath2)"/>
    </g>
    <g text-rendering="geometricPrecision" stroke-miterlimit="1.45" shape-rendering="geometricPrecision" transform="matrix(1,0,0,1,-235,-37)" stroke-linecap="butt">
      <path fill="none" d="M484 272 L524 292 L484 312 L444 292 Z" clip-path="url(#clipPath2)"/>
      <text x="458.7725" xml:space="preserve" y="296.5352" clip-path="url(#clipPath2)" font-family="sans-serif" stroke="none">Navigate</text>
    </g>
    <g fill="url(#linearGradient3)" text-rendering="geometricPrecision" shape-rendering="geometricPrecision" transform="matrix(1,0,0,1,-235,-37)" stroke="url(#linearGradient3)">
      <ellipse rx="45" ry="20" clip-path="url(#clipPath2)" cx="295" cy="362" stroke="none"/>
    </g>
    <g text-rendering="geometricPrecision" stroke-miterlimit="1.45" shape-rendering="geometricPrecision" transform="matrix(1,0,0,1,-235,-37)" stroke-linecap="butt">
      <ellipse rx="45" fill="none" ry="20" clip-path="url(#clipPath2)" cx="295" cy="362"/>
      <text x="256.0439" xml:space="preserve" y="366.5352" clip-path="url(#clipPath2)" font-family="sans-serif" stroke="none">Services Page</text>
    </g>
    <g fill="url(#linearGradient4)" text-rendering="geometricPrecision" shape-rendering="geometricPrecision" transform="matrix(1,0,0,1,-235,-37)" stroke="url(#linearGradient4)">
      <ellipse rx="40" ry="20" clip-path="url(#clipPath2)" cx="451" cy="362" stroke="none"/>
    </g>
    <g text-rendering="geometricPrecision" stroke-miterlimit="1.45" shape-rendering="geometricPrecision" transform="matrix(1,0,0,1,-235,-37)" stroke-linecap="butt">
      <ellipse rx="40" fill="none" ry="20" clip-path="url(#clipPath2)" cx="451" cy="362"/>
      <text x="420.6074" xml:space="preserve" y="366.5352" clip-path="url(#clipPath2)" font-family="sans-serif" stroke="none">Work Page</text>
    </g>
    <g fill="url(#linearGradient5)" text-rendering="geometricPrecision" shape-rendering="geometricPrecision" transform="matrix(1,0,0,1,-235,-37)" stroke="url(#linearGradient5)">
      <ellipse rx="40" ry="20" clip-path="url(#clipPath2)" cx="753" cy="362" stroke="none"/>
    </g>
    <g text-rendering="geometricPrecision" stroke-miterlimit="1.45" shape-rendering="geometricPrecision" transform="matrix(1,0,0,1,-235,-37)" stroke-linecap="butt">
      <ellipse rx="40" fill="none" ry="20" clip-path="url(#clipPath2)" cx="753" cy="362"/>
      <text x="714.9521" xml:space="preserve" y="366.5352" clip-path="url(#clipPath2)" font-family="sans-serif" stroke="none">Contact Page</text>
    </g>
    <g fill="url(#linearGradient6)" text-rendering="geometricPrecision" shape-rendering="geometricPrecision" transform="matrix(1,0,0,1,-235,-37)" stroke="url(#linearGradient6)">
      <ellipse rx="40" ry="20" clip-path="url(#clipPath2)" cx="602" cy="362" stroke="none"/>
    </g>
    <g text-rendering="geometricPrecision" stroke-miterlimit="1.45" shape-rendering="geometricPrecision" transform="matrix(1,0,0,1,-235,-37)" stroke-linecap="butt">
      <ellipse rx="40" fill="none" ry="20" clip-path="url(#clipPath2)" cx="602" cy="362"/>
      <text x="568.8184" xml:space="preserve" y="366.5352" clip-path="url(#clipPath2)" font-family="sans-serif" stroke="none">About Page</text>
    </g>
    <g fill="url(#linearGradient7)" text-rendering="geometricPrecision" shape-rendering="geometricPrecision" transform="matrix(1,0,0,1,-235,-37)" stroke="url(#linearGradient7)">
      <path d="M753.5 403.5 L808 423.5 L753.5 443.5 L699 423.5 Z" stroke="none" clip-path="url(#clipPath2)"/>
    </g>
    <g text-rendering="geometricPrecision" stroke-miterlimit="1.45" shape-rendering="geometricPrecision" transform="matrix(1,0,0,1,-235,-37)" stroke-linecap="butt">
      <path fill="none" d="M753.5 403.5 L808 423.5 L753.5 443.5 L699 423.5 Z" clip-path="url(#clipPath2)"/>
      <text x="718.6221" xml:space="preserve" y="428.0352" clip-path="url(#clipPath2)" font-family="sans-serif" stroke="none">Direct Email</text>
    </g>
    <g fill="url(#linearGradient8)" text-rendering="geometricPrecision" shape-rendering="geometricPrecision" transform="matrix(1,0,0,1,-235,-37)" stroke="url(#linearGradient8)">
      <path d="M484.5 122 L597 142 L484.5 162 L372 142 Z" stroke="none" clip-path="url(#clipPath2)"/>
    </g>
    <g text-rendering="geometricPrecision" stroke-miterlimit="1.45" shape-rendering="geometricPrecision" transform="matrix(1,0,0,1,-235,-37)" stroke-linecap="butt">
      <path fill="none" d="M484.5 122 L597 142 L484.5 162 L372 142 Z" clip-path="url(#clipPath2)"/>
      <text x="414.1904" xml:space="preserve" y="146.5352" clip-path="url(#clipPath2)" font-family="sans-serif" stroke="none">Clicked URL on LinkedIn</text>
    </g>
    <g fill="url(#linearGradient9)" text-rendering="geometricPrecision" shape-rendering="geometricPrecision" transform="matrix(1,0,0,1,-235,-37)" stroke="url(#linearGradient9)">
      <path d="M483.5 52 L585 72 L483.5 92 L382 72 Z" stroke="none" clip-path="url(#clipPath2)"/>
    </g>
    <g text-rendering="geometricPrecision" stroke-miterlimit="1.45" shape-rendering="geometricPrecision" transform="matrix(1,0,0,1,-235,-37)" stroke-linecap="butt">
      <path fill="none" d="M483.5 52 L585 72 L483.5 92 L382 72 Z" clip-path="url(#clipPath2)"/>
      <text x="422.5068" xml:space="preserve" y="76.5352" clip-path="url(#clipPath2)" font-family="sans-serif" stroke="none">Notice from LinkedIn</text>
    </g>
    <g text-rendering="geometricPrecision" stroke-miterlimit="1.45" shape-rendering="geometricPrecision" transform="matrix(1,0,0,1,-235,-37)" stroke-linecap="butt">
      <path fill="none" d="M484 237.0317 L484 264.0042" clip-path="url(#clipPath2)"/>
    </g>
    <g text-rendering="geometricPrecision" stroke-miterlimit="1.45" shape-rendering="geometricPrecision" transform="matrix(1,0,0,1,-235,-37)" stroke-linecap="butt">
      <path d="M484 272.0042 L489 260.0042 L484 263.0042 L479 260.0042 Z" stroke="none" clip-path="url(#clipPath2)"/>
      <path fill="none" d="M484 272.0112 L484 244.9824" clip-path="url(#clipPath2)"/>
      <path d="M484 236.9824 L479 248.9824 L484 245.9824 L489 248.9824 Z" clip-path="url(#clipPath2)" stroke="none"/>
      <path fill="none" d="M461.0671 300.4937 L337.0858 346.4127" clip-path="url(#clipPath2)"/>
      <path d="M329.5838 349.1912 L342.5734 349.7121 L338.0235 346.0653 L339.1002 340.3347 Z" clip-path="url(#clipPath2)" stroke="none"/>
      <path fill="none" d="M476.3784 308.167 L463.5937 335.2861" clip-path="url(#clipPath2)"/>
      <path d="M460.1823 342.5223 L469.822 333.8001 L464.0201 334.3816 L460.7767 329.5359 Z" clip-path="url(#clipPath2)" stroke="none"/>
      <path fill="none" d="M340.001 362 L411 362 L411.0391 362" clip-path="url(#clipPath2)"/>
      <path d="M411.0391 362 L399.0391 357 L402.0391 362 L399.0391 367 Z" clip-path="url(#clipPath2)" stroke="none"/>
      <path fill="none" d="M411.0312 362 L347.9787 362" clip-path="url(#clipPath2)"/>
      <path d="M339.9787 362 L351.9787 367 L348.9787 362 L351.9787 357 Z" clip-path="url(#clipPath2)" stroke="none"/>
      <path fill="none" d="M510.3024 298.8445 L709.7953 350.7571" clip-path="url(#clipPath2)"/>
      <path d="M717.5375 352.7718 L707.1834 344.9109 L708.8275 350.5053 L704.665 354.5887 Z" clip-path="url(#clipPath2)" stroke="none"/>
      <path fill="none" d="M502.2935 302.8521 L569.3409 342.626" clip-path="url(#clipPath2)"/>
      <path d="M576.2214 346.7076 L568.4518 336.2849 L568.4809 342.1158 L563.3497 344.8854 Z" clip-path="url(#clipPath2)" stroke="none"/>
      <path fill="none" d="M713.0098 362 L650.0245 362" clip-path="url(#clipPath2)"/>
      <path d="M642.0245 362 L654.0245 367 L651.0245 362 L654.0245 357 Z" clip-path="url(#clipPath2)" stroke="none"/>
      <path fill="none" d="M490.9988 362 L553.9734 362" clip-path="url(#clipPath2)"/>
      <path d="M561.9734 362 L549.9734 357 L552.9734 362 L549.9734 367 Z" clip-path="url(#clipPath2)" stroke="none"/>
      <path fill="none" d="M641.9988 362 L704.9734 362" clip-path="url(#clipPath2)"/>
      <path d="M712.9734 362 L700.9734 357 L703.9734 362 L700.9734 367 Z" clip-path="url(#clipPath2)" stroke="none"/>
      <path fill="none" d="M561.978 362 L499.0237 362" clip-path="url(#clipPath2)"/>
      <path d="M491.0237 362 L503.0237 367 L500.0237 362 L503.0237 357 Z" clip-path="url(#clipPath2)" stroke="none"/>
      <path fill="none" d="M753.1628 382.0295 L753.2726 395.5345" clip-path="url(#clipPath2)"/>
      <path d="M753.3376 403.5342 L758.24 391.494 L753.2645 394.5345 L748.2403 391.5753 Z" clip-path="url(#clipPath2)" stroke="none"/>
      <path fill="none" d="M484.3186 161.9536 L484 197 L484 197.0391" clip-path="url(#clipPath2)"/>
      <path d="M484 197.0391 L489 185.0391 L484 188.0391 L479 185.0391 Z" clip-path="url(#clipPath2)" stroke="none"/>
      <path fill="none" d="M483.7847 91.9268 L484.1014 114.0987" clip-path="url(#clipPath2)"/>
      <path d="M484.2157 122.0978 L489.0438 110.0276 L484.0871 113.0988 L479.0448 110.1705 Z" clip-path="url(#clipPath2)" stroke="none"/>
    </g>
  </g>
</svg>
