<?xml version="1.0" encoding="UTF-8"?><svg xmlns="http://www.w3.org/2000/svg" xmlns:xlink="http://www.w3.org/1999/xlink" fill-opacity="1" color-rendering="auto" color-interpolation="auto" text-rendering="auto" stroke="black" stroke-linecap="square" width="632" stroke-miterlimit="10" shape-rendering="auto" stroke-opacity="1" fill="black" stroke-dasharray="none" font-weight="normal" stroke-width="1" height="266" font-family="'Dialog'" font-style="normal" stroke-linejoin="miter" font-size="12" stroke-dashoffset="0" image-rendering="auto">
  <!--Generated by ySVG 2.5-->
  <defs id="genericDefs"/>
  <g>
    <defs id="defs1">
      <linearGradient x1="187" gradientUnits="userSpaceOnUse" x2="267" y1="167" y2="207" id="linearGradient1" spreadMethod="reflect">
        <stop stop-opacity="1" stop-color="rgb(232,238,247)" offset="0%"/>
        <stop stop-opacity="1" stop-color="rgb(183,201,227)" offset="100%"/>
      </linearGradient>
      <linearGradient x1="344" gradientUnits="userSpaceOnUse" x2="424" y1="167" y2="207" id="linearGradient2" spreadMethod="reflect">
        <stop stop-opacity="1" stop-color="rgb(232,238,247)" offset="0%"/>
        <stop stop-opacity="1" stop-color="rgb(183,201,227)" offset="100%"/>
      </linearGradient>
      <linearGradient x1="501" gradientUnits="userSpaceOnUse" x2="581" y1="167" y2="207" id="linearGradient3" spreadMethod="reflect">
        <stop stop-opacity="1" stop-color="rgb(232,238,247)" offset="0%"/>
        <stop stop-opacity="1" stop-color="rgb(183,201,227)" offset="100%"/>
      </linearGradient>
      <linearGradient x1="658" gradientUnits="userSpaceOnUse" x2="738" y1="167" y2="207" id="linearGradient4" spreadMethod="reflect">
        <stop stop-opacity="1" stop-color="rgb(232,238,247)" offset="0%"/>
        <stop stop-opacity="1" stop-color="rgb(183,201,227)" offset="100%"/>
      </linearGradient>
      <linearGradient x1="422.5" gradientUnits="userSpaceOnUse" x2="502.5" y1="97" y2="137" id="linearGradient5" spreadMethod="reflect">
        <stop stop-opacity="1" stop-color="rgb(232,238,247)" offset="0%"/>
        <stop stop-opacity="1" stop-color="rgb(183,201,227)" offset="100%"/>
      </linearGradient>
      <linearGradient x1="702" gradientUnits="userSpaceOnUse" x2="789" y1="192" y2="232" id="linearGradient6" spreadMethod="reflect">
        <stop stop-opacity="1" stop-color="rgb(232,238,247)" offset="0%"/>
        <stop stop-opacity="1" stop-color="rgb(183,201,227)" offset="100%"/>
      </linearGradient>
      <linearGradient x1="344" gradientUnits="userSpaceOnUse" x2="424" y1="230" y2="270" id="linearGradient7" spreadMethod="reflect">
        <stop stop-opacity="1" stop-color="rgb(232,238,247)" offset="0%"/>
        <stop stop-opacity="1" stop-color="rgb(183,201,227)" offset="100%"/>
      </linearGradient>
      <linearGradient x1="344" gradientUnits="userSpaceOnUse" x2="424" y1="293" y2="333" id="linearGradient8" spreadMethod="reflect">
        <stop stop-opacity="1" stop-color="rgb(232,238,247)" offset="0%"/>
        <stop stop-opacity="1" stop-color="rgb(183,201,227)" offset="100%"/>
      </linearGradient>
      <clipPath clipPathUnits="userSpaceOnUse" id="clipPath1">
        <path d="M0 0 L632 0 L632 266 L0 266 L0 0 Z"/>
      </clipPath>
      <clipPath clipPathUnits="userSpaceOnUse" id="clipPath2">
        <path d="M172 82 L804 82 L804 348 L172 348 L172 82 Z"/>
      </clipPath>
    </defs>
    <g fill="white" text-rendering="geometricPrecision" shape-rendering="geometricPrecision" transform="translate(-172,-82)" stroke="white">
      <rect x="172" width="632" height="266" y="82" clip-path="url(#clipPath2)" stroke="none"/>
    </g>
    <g fill="url(#linearGradient1)" text-rendering="geometricPrecision" shape-rendering="geometricPrecision" transform="matrix(1,0,0,1,-172,-82)" stroke="url(#linearGradient1)">
      <path d="M187 167 L267 167 L267 207 L187 207 Z" stroke="none" clip-path="url(#clipPath2)"/>
    </g>
    <g text-rendering="geometricPrecision" stroke-miterlimit="1.45" shape-rendering="geometricPrecision" transform="matrix(1,0,0,1,-172,-82)" stroke-linecap="butt">
      <path fill="none" d="M187 167 L267 167 L267 207 L187 207 Z" clip-path="url(#clipPath2)"/>
      <text x="206.7969" xml:space="preserve" y="191.5352" clip-path="url(#clipPath2)" font-family="sans-serif" stroke="none">ABOUT</text>
    </g>
    <g fill="url(#linearGradient2)" text-rendering="geometricPrecision" shape-rendering="geometricPrecision" transform="matrix(1,0,0,1,-172,-82)" stroke="url(#linearGradient2)">
      <path d="M344 167 L424 167 L424 207 L344 207 Z" stroke="none" clip-path="url(#clipPath2)"/>
    </g>
    <g text-rendering="geometricPrecision" stroke-miterlimit="1.45" shape-rendering="geometricPrecision" transform="matrix(1,0,0,1,-172,-82)" stroke-linecap="butt">
      <path fill="none" d="M344 167 L424 167 L424 207 L344 207 Z" clip-path="url(#clipPath2)"/>
      <text x="366.4951" xml:space="preserve" y="191.5352" clip-path="url(#clipPath2)" font-family="sans-serif" stroke="none">WORK</text>
    </g>
    <g fill="url(#linearGradient3)" text-rendering="geometricPrecision" shape-rendering="geometricPrecision" transform="matrix(1,0,0,1,-172,-82)" stroke="url(#linearGradient3)">
      <path d="M501 167 L581 167 L581 207 L501 207 Z" stroke="none" clip-path="url(#clipPath2)"/>
    </g>
    <g text-rendering="geometricPrecision" stroke-miterlimit="1.45" shape-rendering="geometricPrecision" transform="matrix(1,0,0,1,-172,-82)" stroke-linecap="butt">
      <path fill="none" d="M501 167 L581 167 L581 207 L501 207 Z" clip-path="url(#clipPath2)"/>
      <text x="514.4365" xml:space="preserve" y="191.5352" clip-path="url(#clipPath2)" font-family="sans-serif" stroke="none">SERVICES</text>
    </g>
    <g fill="url(#linearGradient4)" text-rendering="geometricPrecision" shape-rendering="geometricPrecision" transform="matrix(1,0,0,1,-172,-82)" stroke="url(#linearGradient4)">
      <path d="M658 167 L738 167 L738 207 L658 207 Z" stroke="none" clip-path="url(#clipPath2)"/>
    </g>
    <g text-rendering="geometricPrecision" stroke-miterlimit="1.45" shape-rendering="geometricPrecision" transform="matrix(1,0,0,1,-172,-82)" stroke-linecap="butt">
      <path fill="none" d="M658 167 L738 167 L738 207 L658 207 Z" clip-path="url(#clipPath2)"/>
      <text x="668.876" xml:space="preserve" y="191.5352" clip-path="url(#clipPath2)" font-family="sans-serif" stroke="none">CONTACT</text>
    </g>
    <g fill="url(#linearGradient5)" text-rendering="geometricPrecision" shape-rendering="geometricPrecision" transform="matrix(1,0,0,1,-172,-82)" stroke="url(#linearGradient5)">
      <path d="M422.5 97 L502.5 97 L502.5 137 L422.5 137 Z" stroke="none" clip-path="url(#clipPath2)"/>
    </g>
    <g text-rendering="geometricPrecision" stroke-miterlimit="1.45" shape-rendering="geometricPrecision" transform="matrix(1,0,0,1,-172,-82)" stroke-linecap="butt">
      <path fill="none" d="M422.5 97 L502.5 97 L502.5 137 L422.5 137 Z" clip-path="url(#clipPath2)"/>
      <text x="428.0674" xml:space="preserve" y="121.5352" clip-path="url(#clipPath2)" font-family="sans-serif" stroke="none">HOME PAGE</text>
    </g>
    <g fill="url(#linearGradient6)" text-rendering="geometricPrecision" shape-rendering="geometricPrecision" transform="matrix(1,0,0,1,-172,-82)" stroke="url(#linearGradient6)">
      <path d="M702 202 L789 192 L789 232 L702 232 Z" stroke="none" clip-path="url(#clipPath2)"/>
    </g>
    <g text-rendering="geometricPrecision" stroke-miterlimit="1.45" shape-rendering="geometricPrecision" transform="matrix(1,0,0,1,-172,-82)" stroke-linecap="butt">
      <path fill="none" d="M702 202 L789 192 L789 232 L702 232 Z" clip-path="url(#clipPath2)"/>
      <text x="706.207" xml:space="preserve" y="216.5352" clip-path="url(#clipPath2)" font-family="sans-serif" stroke="none">Contact Form</text>
    </g>
    <g fill="url(#linearGradient7)" text-rendering="geometricPrecision" shape-rendering="geometricPrecision" transform="matrix(1,0,0,1,-172,-82)" stroke="url(#linearGradient7)">
      <path d="M344 230 L424 230 L424 270 L344 270 Z" stroke="none" clip-path="url(#clipPath2)"/>
    </g>
    <g text-rendering="geometricPrecision" stroke-miterlimit="1.45" stroke-dasharray="6,2" shape-rendering="geometricPrecision" transform="matrix(1,0,0,1,-172,-82)" stroke-linecap="butt">
      <path fill="none" d="M344 230 L424 230 L424 270 L344 270 Z" clip-path="url(#clipPath2)"/>
      <text x="363.5273" y="254.5352" clip-path="url(#clipPath2)" font-family="sans-serif" stroke-dasharray="none" stroke="none" xml:space="preserve">Work 1</text>
    </g>
    <g fill="url(#linearGradient8)" text-rendering="geometricPrecision" shape-rendering="geometricPrecision" transform="matrix(1,0,0,1,-172,-82)" stroke="url(#linearGradient8)">
      <path d="M344 293 L424 293 L424 333 L344 333 Z" stroke="none" clip-path="url(#clipPath2)"/>
    </g>
    <g text-rendering="geometricPrecision" stroke-miterlimit="1.45" stroke-dasharray="6,2" shape-rendering="geometricPrecision" transform="matrix(1,0,0,1,-172,-82)" stroke-linecap="butt">
      <path fill="none" d="M344 293 L424 293 L424 333 L344 333 Z" clip-path="url(#clipPath2)"/>
      <text x="363.5273" y="317.5352" clip-path="url(#clipPath2)" font-family="sans-serif" stroke-dasharray="none" stroke="none" xml:space="preserve">Work 2</text>
    </g>
    <g text-rendering="geometricPrecision" stroke-miterlimit="1.45" shape-rendering="geometricPrecision" transform="matrix(1,0,0,1,-172,-82)" stroke-linecap="butt">
      <path fill="none" d="M422.5121 117 L227 117 L227 159.0049" clip-path="url(#clipPath2)"/>
    </g>
    <g text-rendering="geometricPrecision" stroke-miterlimit="1.45" shape-rendering="geometricPrecision" transform="matrix(1,0,0,1,-172,-82)" stroke-linecap="butt">
      <path d="M227 167.0049 L232 155.0049 L227 158.0049 L222 155.0049 Z" stroke="none" clip-path="url(#clipPath2)"/>
      <path fill="none" d="M502.4879 117 L698 117 L698 159.0049" clip-path="url(#clipPath2)"/>
      <path d="M698 167.0049 L703 155.0049 L698 158.0049 L693 155.0049 Z" clip-path="url(#clipPath2)" stroke="none"/>
      <path fill="none" d="M502.4783 117 L541 117 L541 159.0049" clip-path="url(#clipPath2)"/>
      <path d="M541 167.0049 L546 155.0049 L541 158.0049 L536 155.0049 Z" clip-path="url(#clipPath2)" stroke="none"/>
      <path fill="none" d="M422.5217 117 L384 117 L384 159.0049" clip-path="url(#clipPath2)"/>
      <path d="M384 167.0049 L389 155.0049 L384 158.0049 L379 155.0049 Z" clip-path="url(#clipPath2)" stroke="none"/>
      <path fill="none" d="M384 207.0259 L384 221.9818" clip-path="url(#clipPath2)"/>
      <path d="M384 229.9818 L389 217.9818 L384 220.9818 L379 217.9818 Z" clip-path="url(#clipPath2)" stroke="none"/>
      <path fill="none" d="M384 270.0259 L384 284.9818" clip-path="url(#clipPath2)"/>
      <path d="M384 292.9818 L389 280.9818 L384 283.9818 L379 280.9818 Z" clip-path="url(#clipPath2)" stroke="none"/>
    </g>
  </g>
</svg>
