<?xml version="1.0" encoding="UTF-8"?><svg xmlns="http://www.w3.org/2000/svg" xmlns:xlink="http://www.w3.org/1999/xlink" fill-opacity="1" color-rendering="auto" color-interpolation="auto" text-rendering="auto" stroke="black" stroke-linecap="square" width="578" stroke-miterlimit="10" shape-rendering="auto" stroke-opacity="1" fill="black" stroke-dasharray="none" font-weight="normal" stroke-width="1" height="483" font-family="'Dialog'" font-style="normal" stroke-linejoin="miter" font-size="12" stroke-dashoffset="0" image-rendering="auto">
  <!--Generated by ySVG 2.5-->
  <defs id="genericDefs"/>
  <g>
    <defs id="defs1">
      <linearGradient x1="444" gradientUnits="userSpaceOnUse" x2="524" y1="97" y2="137" id="linearGradient1" spreadMethod="reflect">
        <stop stop-opacity="1" stop-color="rgb(232,238,247)" offset="0%"/>
        <stop stop-opacity="1" stop-color="rgb(183,201,227)" offset="100%"/>
      </linearGradient>
      <linearGradient x1="444" gradientUnits="userSpaceOnUse" x2="524" y1="172" y2="212" id="linearGradient2" spreadMethod="reflect">
        <stop stop-opacity="1" stop-color="rgb(232,238,247)" offset="0%"/>
        <stop stop-opacity="1" stop-color="rgb(183,201,227)" offset="100%"/>
      </linearGradient>
      <linearGradient x1="250" gradientUnits="userSpaceOnUse" x2="340" y1="242" y2="282" id="linearGradient3" spreadMethod="reflect">
        <stop stop-opacity="1" stop-color="rgb(232,238,247)" offset="0%"/>
        <stop stop-opacity="1" stop-color="rgb(183,201,227)" offset="100%"/>
      </linearGradient>
      <linearGradient x1="411" gradientUnits="userSpaceOnUse" x2="491" y1="242" y2="282" id="linearGradient4" spreadMethod="reflect">
        <stop stop-opacity="1" stop-color="rgb(232,238,247)" offset="0%"/>
        <stop stop-opacity="1" stop-color="rgb(183,201,227)" offset="100%"/>
      </linearGradient>
      <linearGradient x1="713" gradientUnits="userSpaceOnUse" x2="793" y1="242" y2="282" id="linearGradient5" spreadMethod="reflect">
        <stop stop-opacity="1" stop-color="rgb(232,238,247)" offset="0%"/>
        <stop stop-opacity="1" stop-color="rgb(183,201,227)" offset="100%"/>
      </linearGradient>
      <linearGradient x1="562" gradientUnits="userSpaceOnUse" x2="642" y1="242" y2="282" id="linearGradient6" spreadMethod="reflect">
        <stop stop-opacity="1" stop-color="rgb(232,238,247)" offset="0%"/>
        <stop stop-opacity="1" stop-color="rgb(183,201,227)" offset="100%"/>
      </linearGradient>
      <linearGradient x1="708" gradientUnits="userSpaceOnUse" x2="798" y1="365" y2="405" id="linearGradient7" spreadMethod="reflect">
        <stop stop-opacity="1" stop-color="rgb(232,238,247)" offset="0%"/>
        <stop stop-opacity="1" stop-color="rgb(183,201,227)" offset="100%"/>
      </linearGradient>
      <linearGradient x1="713" gradientUnits="userSpaceOnUse" x2="793" y1="303.5" y2="343.5" id="linearGradient8" spreadMethod="reflect">
        <stop stop-opacity="1" stop-color="rgb(232,238,247)" offset="0%"/>
        <stop stop-opacity="1" stop-color="rgb(183,201,227)" offset="100%"/>
      </linearGradient>
      <linearGradient x1="444" gradientUnits="userSpaceOnUse" x2="524" y1="22" y2="62" id="linearGradient9" spreadMethod="reflect">
        <stop stop-opacity="1" stop-color="rgb(232,238,247)" offset="0%"/>
        <stop stop-opacity="1" stop-color="rgb(183,201,227)" offset="100%"/>
      </linearGradient>
      <linearGradient x1="713" gradientUnits="userSpaceOnUse" x2="793" y1="435" y2="475" id="linearGradient10" spreadMethod="reflect">
        <stop stop-opacity="1" stop-color="rgb(232,238,247)" offset="0%"/>
        <stop stop-opacity="1" stop-color="rgb(183,201,227)" offset="100%"/>
      </linearGradient>
      <clipPath clipPathUnits="userSpaceOnUse" id="clipPath1">
        <path d="M0 0 L578 0 L578 483 L0 483 L0 0 Z"/>
      </clipPath>
      <clipPath clipPathUnits="userSpaceOnUse" id="clipPath2">
        <path d="M235 7 L813 7 L813 490 L235 490 L235 7 Z"/>
      </clipPath>
    </defs>
    <g fill="white" text-rendering="geometricPrecision" shape-rendering="geometricPrecision" transform="translate(-235,-7)" stroke="white">
      <rect x="235" width="578" height="483" y="7" clip-path="url(#clipPath2)" stroke="none"/>
    </g>
    <g fill="url(#linearGradient1)" text-rendering="geometricPrecision" shape-rendering="geometricPrecision" transform="matrix(1,0,0,1,-235,-7)" stroke="url(#linearGradient1)">
      <ellipse rx="40" ry="20" clip-path="url(#clipPath2)" cx="484" cy="117" stroke="none"/>
    </g>
    <g text-rendering="geometricPrecision" stroke-miterlimit="1.45" shape-rendering="geometricPrecision" transform="matrix(1,0,0,1,-235,-7)" stroke-linecap="butt">
      <ellipse rx="40" fill="none" ry="20" clip-path="url(#clipPath2)" cx="484" cy="117"/>
      <text x="451.3486" xml:space="preserve" y="121.5352" clip-path="url(#clipPath2)" font-family="sans-serif" stroke="none">Home Page</text>
    </g>
    <g fill="url(#linearGradient2)" text-rendering="geometricPrecision" shape-rendering="geometricPrecision" transform="matrix(1,0,0,1,-235,-7)" stroke="url(#linearGradient2)">
      <path d="M484 172 L524 192 L484 212 L444 192 Z" stroke="none" clip-path="url(#clipPath2)"/>
    </g>
    <g text-rendering="geometricPrecision" stroke-miterlimit="1.45" shape-rendering="geometricPrecision" transform="matrix(1,0,0,1,-235,-7)" stroke-linecap="butt">
      <path fill="none" d="M484 172 L524 192 L484 212 L444 192 Z" clip-path="url(#clipPath2)"/>
      <text x="458.7725" xml:space="preserve" y="196.5352" clip-path="url(#clipPath2)" font-family="sans-serif" stroke="none">Navigate</text>
    </g>
    <g fill="url(#linearGradient3)" text-rendering="geometricPrecision" shape-rendering="geometricPrecision" transform="matrix(1,0,0,1,-235,-7)" stroke="url(#linearGradient3)">
      <ellipse rx="45" ry="20" clip-path="url(#clipPath2)" cx="295" cy="262" stroke="none"/>
    </g>
    <g text-rendering="geometricPrecision" stroke-miterlimit="1.45" shape-rendering="geometricPrecision" transform="matrix(1,0,0,1,-235,-7)" stroke-linecap="butt">
      <ellipse rx="45" fill="none" ry="20" clip-path="url(#clipPath2)" cx="295" cy="262"/>
      <text x="256.0439" xml:space="preserve" y="266.5352" clip-path="url(#clipPath2)" font-family="sans-serif" stroke="none">Services Page</text>
    </g>
    <g fill="url(#linearGradient4)" text-rendering="geometricPrecision" shape-rendering="geometricPrecision" transform="matrix(1,0,0,1,-235,-7)" stroke="url(#linearGradient4)">
      <ellipse rx="40" ry="20" clip-path="url(#clipPath2)" cx="451" cy="262" stroke="none"/>
    </g>
    <g text-rendering="geometricPrecision" stroke-miterlimit="1.45" shape-rendering="geometricPrecision" transform="matrix(1,0,0,1,-235,-7)" stroke-linecap="butt">
      <ellipse rx="40" fill="none" ry="20" clip-path="url(#clipPath2)" cx="451" cy="262"/>
      <text x="420.6074" xml:space="preserve" y="266.5352" clip-path="url(#clipPath2)" font-family="sans-serif" stroke="none">Work Page</text>
    </g>
    <g fill="url(#linearGradient5)" text-rendering="geometricPrecision" shape-rendering="geometricPrecision" transform="matrix(1,0,0,1,-235,-7)" stroke="url(#linearGradient5)">
      <ellipse rx="40" ry="20" clip-path="url(#clipPath2)" cx="753" cy="262" stroke="none"/>
    </g>
    <g text-rendering="geometricPrecision" stroke-miterlimit="1.45" shape-rendering="geometricPrecision" transform="matrix(1,0,0,1,-235,-7)" stroke-linecap="butt">
      <ellipse rx="40" fill="none" ry="20" clip-path="url(#clipPath2)" cx="753" cy="262"/>
      <text x="714.9521" xml:space="preserve" y="266.5352" clip-path="url(#clipPath2)" font-family="sans-serif" stroke="none">Contact Page</text>
    </g>
    <g fill="url(#linearGradient6)" text-rendering="geometricPrecision" shape-rendering="geometricPrecision" transform="matrix(1,0,0,1,-235,-7)" stroke="url(#linearGradient6)">
      <ellipse rx="40" ry="20" clip-path="url(#clipPath2)" cx="602" cy="262" stroke="none"/>
    </g>
    <g text-rendering="geometricPrecision" stroke-miterlimit="1.45" shape-rendering="geometricPrecision" transform="matrix(1,0,0,1,-235,-7)" stroke-linecap="butt">
      <ellipse rx="40" fill="none" ry="20" clip-path="url(#clipPath2)" cx="602" cy="262"/>
      <text x="568.8184" xml:space="preserve" y="266.5352" clip-path="url(#clipPath2)" font-family="sans-serif" stroke="none">About Page</text>
    </g>
    <g fill="url(#linearGradient7)" text-rendering="geometricPrecision" shape-rendering="geometricPrecision" transform="matrix(1,0,0,1,-235,-7)" stroke="url(#linearGradient7)">
      <path d="M708 375 L798 365 L798 405 L708 405 Z" stroke="none" clip-path="url(#clipPath2)"/>
    </g>
    <g text-rendering="geometricPrecision" stroke-miterlimit="1.45" shape-rendering="geometricPrecision" transform="matrix(1,0,0,1,-235,-7)" stroke-linecap="butt">
      <path fill="none" d="M708 375 L798 365 L798 405 L708 405 Z" clip-path="url(#clipPath2)"/>
      <text x="713.707" xml:space="preserve" y="389.5352" clip-path="url(#clipPath2)" font-family="sans-serif" stroke="none">Contact Form</text>
    </g>
    <g fill="url(#linearGradient8)" text-rendering="geometricPrecision" shape-rendering="geometricPrecision" transform="matrix(1,0,0,1,-235,-7)" stroke="url(#linearGradient8)">
      <path d="M753 303.5 L793 323.5 L753 343.5 L713 323.5 Z" stroke="none" clip-path="url(#clipPath2)"/>
    </g>
    <g text-rendering="geometricPrecision" stroke-miterlimit="1.45" shape-rendering="geometricPrecision" transform="matrix(1,0,0,1,-235,-7)" stroke-linecap="butt">
      <path fill="none" d="M753 303.5 L793 323.5 L753 343.5 L713 323.5 Z" clip-path="url(#clipPath2)"/>
      <text x="730.5645" xml:space="preserve" y="328.0352" clip-path="url(#clipPath2)" font-family="sans-serif" stroke="none">Contact</text>
    </g>
    <g fill="url(#linearGradient9)" text-rendering="geometricPrecision" shape-rendering="geometricPrecision" transform="matrix(1,0,0,1,-235,-7)" stroke="url(#linearGradient9)">
      <path d="M484 22 L524 42 L484 62 L444 42 Z" stroke="none" clip-path="url(#clipPath2)"/>
    </g>
    <g text-rendering="geometricPrecision" stroke-miterlimit="1.45" shape-rendering="geometricPrecision" transform="matrix(1,0,0,1,-235,-7)" stroke-linecap="butt">
      <path fill="none" d="M484 22 L524 42 L484 62 L444 42 Z" clip-path="url(#clipPath2)"/>
      <text x="456.9033" xml:space="preserve" y="46.5352" clip-path="url(#clipPath2)" font-family="sans-serif" stroke="none">Type URL</text>
    </g>
    <g fill="url(#linearGradient10)" text-rendering="geometricPrecision" shape-rendering="geometricPrecision" transform="matrix(1,0,0,1,-235,-7)" stroke="url(#linearGradient10)">
      <path d="M713 435 L793 435 L793 470 Q773 460 753 470 Q733 480 713 470 Z" stroke="none" clip-path="url(#clipPath2)"/>
    </g>
    <g text-rendering="geometricPrecision" stroke-miterlimit="1.45" shape-rendering="geometricPrecision" transform="matrix(1,0,0,1,-235,-7)" stroke-linecap="butt">
      <path fill="none" d="M713 435 L793 435 L793 470 Q773 460 753 470 Q733 480 713 470 Z" clip-path="url(#clipPath2)"/>
      <text x="737.3643" xml:space="preserve" y="459.5352" clip-path="url(#clipPath2)" font-family="sans-serif" stroke="none">Email</text>
    </g>
    <g text-rendering="geometricPrecision" stroke-miterlimit="1.45" shape-rendering="geometricPrecision" transform="matrix(1,0,0,1,-235,-7)" stroke-linecap="butt">
      <path fill="none" d="M484 137.0317 L484 164.0042" clip-path="url(#clipPath2)"/>
    </g>
    <g text-rendering="geometricPrecision" stroke-miterlimit="1.45" shape-rendering="geometricPrecision" transform="matrix(1,0,0,1,-235,-7)" stroke-linecap="butt">
      <path d="M484 172.0042 L489 160.0042 L484 163.0042 L479 160.0042 Z" stroke="none" clip-path="url(#clipPath2)"/>
      <path fill="none" d="M484 172.0112 L484 144.9824" clip-path="url(#clipPath2)"/>
      <path d="M484 136.9824 L479 148.9824 L484 145.9824 L489 148.9824 Z" clip-path="url(#clipPath2)" stroke="none"/>
      <path fill="none" d="M461.0671 200.4937 L337.0858 246.4127" clip-path="url(#clipPath2)"/>
      <path d="M329.5838 249.1912 L342.5734 249.7122 L338.0235 246.0654 L339.1002 240.3347 Z" clip-path="url(#clipPath2)" stroke="none"/>
      <path fill="none" d="M476.3784 208.167 L463.5937 235.2861" clip-path="url(#clipPath2)"/>
      <path d="M460.1823 242.5223 L469.822 233.8001 L464.0201 234.3816 L460.7767 229.5359 Z" clip-path="url(#clipPath2)" stroke="none"/>
      <path fill="none" d="M340.001 262 L411 262 L411.0391 262" clip-path="url(#clipPath2)"/>
      <path d="M411.0391 262 L399.0391 257 L402.0391 262 L399.0391 267 Z" clip-path="url(#clipPath2)" stroke="none"/>
      <path fill="none" d="M411.0312 262 L347.9787 262" clip-path="url(#clipPath2)"/>
      <path d="M339.9787 262 L351.9787 267 L348.9787 262 L351.9787 257 Z" clip-path="url(#clipPath2)" stroke="none"/>
      <path fill="none" d="M510.3024 198.8445 L709.7953 250.7571" clip-path="url(#clipPath2)"/>
      <path d="M717.5375 252.7718 L707.1834 244.9109 L708.8276 250.5053 L704.665 254.5887 Z" clip-path="url(#clipPath2)" stroke="none"/>
      <path fill="none" d="M502.2935 202.8521 L569.3409 242.626" clip-path="url(#clipPath2)"/>
      <path d="M576.2214 246.7076 L568.4517 236.2849 L568.4809 242.1158 L563.3497 244.8854 Z" clip-path="url(#clipPath2)" stroke="none"/>
      <path fill="none" d="M490.9988 262 L553.9734 262" clip-path="url(#clipPath2)"/>
      <path d="M561.9734 262 L549.9734 257 L552.9734 262 L549.9734 267 Z" clip-path="url(#clipPath2)" stroke="none"/>
      <path fill="none" d="M713.0098 262 L650.0245 262" clip-path="url(#clipPath2)"/>
      <path d="M642.0245 262 L654.0245 267 L651.0245 262 L654.0245 257 Z" clip-path="url(#clipPath2)" stroke="none"/>
      <path fill="none" d="M641.9988 262 L704.9734 262" clip-path="url(#clipPath2)"/>
      <path d="M712.9734 262 L700.9734 257 L703.9734 262 L700.9734 267 Z" clip-path="url(#clipPath2)" stroke="none"/>
      <path fill="none" d="M561.978 262 L499.0237 262" clip-path="url(#clipPath2)"/>
      <path d="M491.0237 262 L503.0237 267 L500.0237 262 L503.0237 257 Z" clip-path="url(#clipPath2)" stroke="none"/>
      <path fill="none" d="M753 282.0295 L753 295.5342" clip-path="url(#clipPath2)"/>
      <path d="M753 303.5342 L758 291.5342 L753 294.5342 L748 291.5342 Z" clip-path="url(#clipPath2)" stroke="none"/>
      <path fill="none" d="M753 343.5295 L753 361.9751" clip-path="url(#clipPath2)"/>
      <path d="M753 369.9751 L758 357.9751 L753 360.9751 L748 357.9751 Z" clip-path="url(#clipPath2)" stroke="none"/>
      <path fill="none" d="M484 62.0073 L484 97 L484 97.0391" clip-path="url(#clipPath2)"/>
      <path d="M484 97.0391 L489 85.0391 L484 88.0391 L479 85.0391 Z" clip-path="url(#clipPath2)" stroke="none"/>
      <path fill="none" d="M753 404.9951 L753 427.0273" clip-path="url(#clipPath2)"/>
      <path d="M753 435.0273 L758 423.0273 L753 426.0273 L748 423.0273 Z" clip-path="url(#clipPath2)" stroke="none"/>
    </g>
  </g>
</svg>
